<?xml version="1.0" encoding="utf-8"?>
<!-- Generator: Adobe Illustrator 28.3.0, SVG Export Plug-In . SVG Version: 6.00 Build 0)  -->
<svg version="1.1" id="Layer_1" xmlns="http://www.w3.org/2000/svg" xmlns:xlink="http://www.w3.org/1999/xlink" x="0px" y="0px"
	 viewBox="0 0 117 30" style="enable-background:new 0 0 117 30;" xml:space="preserve">
<style type="text/css">
	.st0{fill:#FFFFFF;}
	.st1{fill-rule:evenodd;clip-rule:evenodd;fill:#FFFFFF;}
</style>
<g>
	<g>
		<path class="st0" d="M73.2,8.1h-9.5c-0.1,0-0.2,0.2-0.1,0.3l2,2.2c0,0,0.1,0.1,0.1,0.1H67c0.1,0,0.2,0.1,0.2,0.2v11
			c0,0.1,0.1,0.2,0.2,0.2h2.6c0.1,0,0.2-0.1,0.2-0.2v-11c0-0.1,0.1-0.2,0.2-0.2h3.1c0.1,0,0.2-0.1,0.2-0.2V8.2
			C73.4,8.1,73.3,8.1,73.2,8.1z"/>
		<path class="st1" d="M56.7,20.2c-0.1,0.1-0.1,0.2-0.1,0.3l0.4,1.2c0,0.1,0,0.2-0.1,0.2h-2.2c-0.1,0-0.1,0-0.1-0.1L49.7,8.3
			c0-0.1,0-0.2,0.1-0.2H52c0.1,0,0.1,0,0.1,0.1l1.9,5.2c0,0,0,0.1,0.1,0.1c0,0,0.1,0,0.1-0.1c0.1-0.3,0.2-0.6,0.3-0.9
			c0.1-0.1,0-0.3-0.1-0.4l-0.6-0.6c-0.1-0.1-0.1-0.3,0-0.4l1.8-1.8c0.1-0.1,0.3-0.1,0.4,0l0.6,0.6c0.1,0.1,0.3,0.1,0.4,0.1
			c0.2-0.1,0.5-0.2,0.8-0.3c0.1,0,0.2-0.2,0.2-0.3V8.4c0-0.2,0.1-0.3,0.3-0.3h2.5c0.2,0,0.3,0.1,0.3,0.3v0.8c0,0.1,0.1,0.3,0.2,0.3
			c0.3,0.1,0.5,0.2,0.8,0.3c0.1,0.1,0.3,0,0.4-0.1l0.6-0.6c0.1-0.1,0.3-0.1,0.4,0l1.8,1.8c0.1,0.1,0.1,0.3,0,0.4l-0.6,0.6
			c-0.1,0.1-0.1,0.2-0.1,0.4c0.1,0.2,0.2,0.5,0.3,0.8c0,0.1,0.2,0.2,0.3,0.2h0.9c0.2,0,0.3,0.1,0.3,0.3v2.5c0,0.2-0.1,0.3-0.3,0.3
			h-1c-0.1,0-0.3,0.1-0.3,0.2c-0.1,0.2-0.2,0.5-0.3,0.7c-0.1,0.1,0,0.3,0.1,0.4l0.7,0.7c0.1,0.1,0.1,0.3,0,0.4l-1.8,1.8
			c-0.1,0.1-0.3,0.1-0.4,0l-0.7-0.7C62.4,20,62.2,20,62.1,20c-0.2,0.1-0.4,0.2-0.7,0.3c-0.1,0-0.2,0.2-0.2,0.3v1
			c0,0.2-0.1,0.3-0.3,0.3h-2.5c-0.2,0-0.3-0.1-0.3-0.3v-1c0-0.1-0.1-0.3-0.2-0.3c-0.2-0.1-0.5-0.2-0.7-0.3c-0.1-0.1-0.3,0-0.4,0.1
			L56.7,20.2z M62.8,14.9c0,1.7-1.4,3.2-3.1,3.2c-1.7,0-3.1-1.4-3.1-3.2c0-1.7,1.4-3.2,3.1-3.2C61.4,11.8,62.8,13.2,62.8,14.9z"/>
		<path class="st0" d="M50.6,12.2c0,0,0-0.1,0-0.1l-1.4-3.7c-0.1-0.1-0.2-0.1-0.3,0l-5.2,13.3c0,0.1,0,0.2,0.1,0.2h3.1
			c0.1,0,0.1,0,0.1-0.1L50.6,12.2z"/>
	</g>
</g>
</svg>
